<svg width="22" height="21" viewBox="0 0 22 21" fill="none" xmlns="http://www.w3.org/2000/svg">
<path d="M5.29122 2.96556C7.95804 1.028 9.29145 0.0592252 10.8143 0.00336104C10.9364 -0.00112035 11.0587 -0.00112035 11.1809 0.00336104C12.7037 0.0592252 14.0371 1.028 16.7039 2.96556C19.3707 4.90311 20.7041 5.87189 21.2278 7.30291C21.2698 7.41771 21.3076 7.534 21.3411 7.65157C21.7586 9.11711 21.2492 10.6846 20.2306 13.8197L18.5096 19.1164C18.2361 19.958 17.4518 20.5279 16.5669 20.5279C15.4388 20.5279 14.5243 19.6133 14.5243 18.4852V15.7363C14.5243 14.6778 13.6662 13.8197 12.6076 13.8197H9.38748C8.32896 13.8197 7.47085 14.6778 7.47085 15.7363V18.4852C7.47085 19.6133 6.55633 20.5279 5.42821 20.5279C4.54328 20.5279 3.759 19.958 3.48554 19.1164L1.76451 13.8197C0.745881 10.6846 0.236564 9.11711 0.65401 7.65157C0.687497 7.534 0.725284 7.41771 0.767296 7.30291C1.291 5.87189 2.62441 4.90311 5.29122 2.96556Z" fill="white"/>
</svg>
